{
  "accessors": [
    {
      "bufferView": 2,
      "componentType": 5126,
      "count": 388,
      "max": [
        103.07088470458984,
        64.31189727783203,
        31.24306869506836
      ],
      "min": [
        0.0,
        0.9326629638671875,
        0.0
      ],
      "type": "VEC3"
    },
    {
      "bufferView": 2,
      "byteOffset": 4656,
      "componentType": 5126,
      "count": 388,
      "max": [
        1.0,
        1.0,
        1.0
      ],
      "min": [
        -1.0,
        -1.0,
        -1.0
      ],
      "type": "VEC3"
    },
    {
      "bufferView": 3,
      "componentType": 5126,
      "count": 388,
      "max": [
        1.0,
        1.0,
        1.0,
        1.0
      ],
      "min": [
        -1.0,
        -1.0,
        -1.0,
        1.0
      ],
      "type": "VEC4"
    },
    {
      "bufferView": 1,
      "componentType": 5126,
      "count": 388,
      "max": [
        0.9980000257492065,
        0.9757850170135498
      ],
      "min": [
        0.0020000000949949026,
        0.0020000000949949026
      ],
      "type": "VEC2"
    },
    {
      "bufferView": 0,
      "componentType": 5125,
      "count": 810,
      "type": "SCALAR"
    },
    {
      "bufferView": 2,
      "byteOffset": 9312,
      "componentType": 5126,
      "count": 65532,
      "max": [
        102.66543579101563,
        37.11438751220703,
        26.585012435913086
      ],
      "min": [
        0.4815101623535156,
        1.6444816589355469,
        0.7277089357376099
      ],
      "type": "VEC3"
    },
    {
      "bufferView": 2,
      "byteOffset": 795696,
      "componentType": 5126,
      "count": 65532,
      "max": [
        0.9999825954437256,
        0.9999967813491821,
        0.9999610185623169
      ],
      "min": [
        -0.9999942183494568,
        -0.9999958872795105,
        -0.9999386072158813
      ],
      "type": "VEC3"
    },
    {
      "bufferView": 3,
      "byteOffset": 6208,
      "componentType": 5126,
      "count": 65532,
      "max": [
        0.9999416470527649,
        0.9999706745147705,
        0.9999982118606567,
        1.0
      ],
      "min": [
        -0.9999340176582336,
        -0.9999356269836426,
        -0.9999997615814209,
        -1.0
      ],
      "type": "VEC4"
    },
    {
      "bufferView": 1,
      "byteOffset": 3104,
      "componentType": 5126,
      "count": 65532,
      "max": [
        0.9865000247955322,
        0.9994999766349792
      ],
      "min": [
        0.0005000000237487257,
        0.0005000000237487257
      ],
      "type": "VEC2"
    },
    {
      "bufferView": 0,
      "byteOffset": 3240,
      "componentType": 5125,
      "count": 262824,
      "type": "SCALAR"
    },
    {
      "bufferView": 2,
      "byteOffset": 1582080,
      "componentType": 5126,
      "count": 65532,
      "max": [
        102.66543579101563,
        62.54417037963867,
        35.68342208862305
      ],
      "min": [
        0.5309333801269531,
        19.785640716552734,
        0.30741098523139954
      ],
      "type": "VEC3"
    },
    {
      "bufferView": 2,
      "byteOffset": 2368464,
      "componentType": 5126,
      "count": 65532,
      "max": [
        0.9999915361404419,
        0.9999277591705322,
        0.9999942779541016
      ],
      "min": [
        -0.9999788403511047,
        -0.9999821186065674,
        -0.9999598264694214
      ],
      "type": "VEC3"
    },
    {
      "bufferView": 3,
      "byteOffset": 1054720,
      "componentType": 5126,
      "count": 65532,
      "max": [
        0.9999393224716187,
        0.9999991059303284,
        0.9999649524688721,
        1.0
      ],
      "min": [
        -0.9999870657920837,
        -0.9999350309371948,
        -0.9999910593032837,
        -1.0
      ],
      "type": "VEC4"
    },
    {
      "bufferView": 1,
      "byteOffset": 527360,
      "componentType": 5126,
      "count": 65532,
      "max": [
        0.9865000247955322,
        0.9994999766349792
      ],
      "min": [
        0.0005000000237487257,
        0.0005000000237487257
      ],
      "type": "VEC2"
    },
    {
      "bufferView": 0,
      "byteOffset": 1054536,
      "componentType": 5125,
      "count": 257871,
      "type": "SCALAR"
    },
    {
      "bufferView": 2,
      "byteOffset": 3154848,
      "componentType": 5126,
      "count": 65532,
      "max": [
        94.759521484375,
        62.69671630859375,
        40.467647552490234
      ],
      "min": [
        8.838115692138672,
        2.4018783569335938,
        6.404798984527588
      ],
      "type": "VEC3"
    },
    {
      "bufferView": 2,
      "byteOffset": 3941232,
      "componentType": 5126,
      "count": 65532,
      "max": [
        0.9999980330467224,
        0.9999493360519409,
        0.9999845623970032
      ],
      "min": [
        -0.9999840259552002,
        -0.9998666048049927,
        -0.9999601244926453
      ],
      "type": "VEC3"
    },
    {
      "bufferView": 3,
      "byteOffset": 2103232,
      "componentType": 5126,
      "count": 65532,
      "max": [
        0.9999953508377075,
        0.9999827742576599,
        0.9999436140060425,
        1.0
      ],
      "min": [
        -0.9999961256980896,
        -0.9997906684875488,
        -0.99997878074646,
        -1.0
      ],
      "type": "VEC4"
    },
    {
      "bufferView": 1,
      "byteOffset": 1051616,
      "componentType": 5126,
      "count": 65532,
      "max": [
        0.9865000247955322,
        0.9994999766349792
      ],
      "min": [
        0.0005000000237487257,
        0.0005000000237487257
      ],
      "type": "VEC2"
    },
    {
      "bufferView": 0,
      "byteOffset": 2086020,
      "componentType": 5125,
      "count": 258837,
      "type": "SCALAR"
    },
    {
      "bufferView": 2,
      "byteOffset": 4727616,
      "componentType": 5126,
      "count": 65532,
      "max": [
        99.05953979492188,
        64.47962951660156,
        37.433372497558594
      ],
      "min": [
        4.489788055419922,
        0.0,
        6.442647933959961
      ],
      "type": "VEC3"
    },
    {
      "bufferView": 2,
      "byteOffset": 5514000,
      "componentType": 5126,
      "count": 65532,
      "max": [
        0.9998712539672852,
        0.9999350905418396,
        0.9998393654823303
      ],
      "min": [
        -0.9999851584434509,
        -0.9999970197677612,
        -0.9999021291732788
      ],
      "type": "VEC3"
    },
    {
      "bufferView": 3,
      "byteOffset": 3151744,
      "componentType": 5126,
      "count": 65532,
      "max": [
        0.9999707341194153,
        0.9999774098396301,
        0.9999770522117615,
        1.0
      ],
      "min": [
        -0.9999957084655762,
        -0.9999780654907227,
        -0.9999971389770508,
        -1.0
      ],
      "type": "VEC4"
    },
    {
      "bufferView": 1,
      "byteOffset": 1575872,
      "componentType": 5126,
      "count": 65532,
      "max": [
        0.9865000247955322,
        0.9994999766349792
      ],
      "min": [
        0.0005000000237487257,
        0.0005000000237487257
      ],
      "type": "VEC2"
    },
    {
      "bufferView": 0,
      "byteOffset": 3121368,
      "componentType": 5125,
      "count": 246339,
      "type": "SCALAR"
    },
    {
      "bufferView": 2,
      "byteOffset": 6300384,
      "componentType": 5126,
      "count": 56142,
      "max": [
        102.2841796875,
        64.47962951660156,
        33.45188522338867
      ],
      "min": [
        0.6336402893066406,
        36.25740432739258,
        0.6473259925842285
      ],
      "type": "VEC3"
    },
    {
      "bufferView": 2,
      "byteOffset": 6974088,
      "componentType": 5126,
      "count": 56142,
      "max": [
        0.9999687075614929,
        0.9999755620956421,
        0.9999833703041077
      ],
      "min": [
        -0.9999518394470215,
        -0.999984860420227,
        -0.9999598264694214
      ],
      "type": "VEC3"
    },
    {
      "bufferView": 3,
      "byteOffset": 4200256,
      "componentType": 5126,
      "count": 56142,
      "max": [
        0.9999765157699585,
        0.9999350905418396,
        0.9999393820762634,
        1.0
      ],
      "min": [
        -0.9999775886535645,
        -0.9999805092811584,
        -0.9999911189079285,
        -1.0
      ],
      "type": "VEC4"
    },
    {
      "bufferView": 1,
      "byteOffset": 2100128,
      "componentType": 5126,
      "count": 56142,
      "max": [
        0.9865000247955322,
        0.9994999766349792
      ],
      "min": [
        0.0005000000237487257,
        0.0005000000237487257
      ],
      "type": "VEC2"
    },
    {
      "bufferView": 0,
      "byteOffset": 4106724,
      "componentType": 5125,
      "count": 209361,
      "type": "SCALAR"
    }
  ],
  "asset": {
    "extras": {
      "author": "Francesco Coldesina (https://sketchfab.com/topfrank2013)",
      "license": "CC-BY-4.0 (http://creativecommons.org/licenses/by/4.0/)",
      "source": "https://sketchfab.com/3d-models/cesta-salad-021d8cf2ab5e45c3a758eb817de7552a",
      "title": "Cesta Salad"
    },
    "generator": "Sketchfab-12.65.0",
    "version": "2.0"
  },
  "bufferViews": [
    {
      "buffer": 0,
      "byteLength": 4944168,
      "name": "floatBufferViews",
      "target": 34963
    },
    {
      "buffer": 0,
      "byteLength": 2549264,
      "byteOffset": 4944168,
      "byteStride": 8,
      "name": "floatBufferViews",
      "target": 34962
    },
    {
      "buffer": 0,
      "byteLength": 7647792,
      "byteOffset": 7493432,
      "byteStride": 12,
      "name": "floatBufferViews",
      "target": 34962
    },
    {
      "buffer": 0,
      "byteLength": 5098528,
      "byteOffset": 15141224,
      "byteStride": 16,
      "name": "floatBufferViews",
      "target": 34962
    }
  ],
  "buffers": [
    {
      "byteLength": 20239752,
      "uri": "scene.bin"
    }
  ],
  "images": [
    {
      "uri": "textures/Cesta_Bend1_baseColor.jpeg"
    },
    {
      "uri": "textures/Cesta_Bend1_normal.png"
    },
    {
      "uri": "textures/wire_224198087_baseColor.jpeg"
    },
    {
      "uri": "textures/wire_224198087_normal.png"
    }
  ],
  "materials": [
    {
      "doubleSided": true,
      "name": "Cesta_Bend1",
      "normalTexture": {
        "index": 1
      },
      "pbrMetallicRoughness": {
        "baseColorTexture": {
          "index": 0
        },
        "metallicFactor": 0.0,
        "roughnessFactor": 0.6
      }
    },
    {
      "doubleSided": true,
      "name": "wire_224198087",
      "normalTexture": {
        "index": 3
      },
      "pbrMetallicRoughness": {
        "baseColorTexture": {
          "index": 2
        },
        "metallicFactor": 0.0,
        "roughnessFactor": 0.5504954268292683
      }
    }
  ],
  "meshes": [
    {
      "name": "Object_0",
      "primitives": [
        {
          "attributes": {
            "NORMAL": 1,
            "POSITION": 0,
            "TANGENT": 2,
            "TEXCOORD_0": 3
          },
          "indices": 4,
          "material": 0,
          "mode": 4
        }
      ]
    },
    {
      "name": "Object_1",
      "primitives": [
        {
          "attributes": {
            "NORMAL": 6,
            "POSITION": 5,
            "TANGENT": 7,
            "TEXCOORD_0": 8
          },
          "indices": 9,
          "material": 1,
          "mode": 4
        }
      ]
    },
    {
      "name": "Object_2",
      "primitives": [
        {
          "attributes": {
            "NORMAL": 11,
            "POSITION": 10,
            "TANGENT": 12,
            "TEXCOORD_0": 13
          },
          "indices": 14,
          "material": 1,
          "mode": 4
        }
      ]
    },
    {
      "name": "Object_3",
      "primitives": [
        {
          "attributes": {
            "NORMAL": 16,
            "POSITION": 15,
            "TANGENT": 17,
            "TEXCOORD_0": 18
          },
          "indices": 19,
          "material": 1,
          "mode": 4
        }
      ]
    },
    {
      "name": "Object_4",
      "primitives": [
        {
          "attributes": {
            "NORMAL": 21,
            "POSITION": 20,
            "TANGENT": 22,
            "TEXCOORD_0": 23
          },
          "indices": 24,
          "material": 1,
          "mode": 4
        }
      ]
    },
    {
      "name": "Object_5",
      "primitives": [
        {
          "attributes": {
            "NORMAL": 26,
            "POSITION": 25,
            "TANGENT": 27,
            "TEXCOORD_0": 28
          },
          "indices": 29,
          "material": 1,
          "mode": 4
        }
      ]
    }
  ],
  "nodes": [
    {
      "children": [
        1
      ],
      "matrix": [
        1.0,
        0.0,
        0.0,
        0.0,
        0.0,
        2.220446049250313e-16,
        -1.0,
        0.0,
        0.0,
        1.0,
        2.220446049250313e-16,
        0.0,
        0.0,
        0.0,
        0.0,
        1.0
      ],
      "name": "Sketchfab_model"
    },
    {
      "children": [
        2
      ],
      "matrix": [
        1.0,
        0.0,
        0.0,
        0.0,
        0.0,
        1.0,
        0.0,
        0.0,
        0.0,
        0.0,
        1.0,
        0.0,
        -51.53544235229492,
        -32.62228012084961,
        0.2672080099582672,
        1.0
      ],
      "name": "Cesta Salad.obj.cleaner.gles"
    },
    {
      "children": [
        3,
        4,
        5,
        6,
        7,
        8
      ],
      "name": "Object_2"
    },
    {
      "mesh": 0,
      "name": "Object_3"
    },
    {
      "mesh": 1,
      "name": "Object_4"
    },
    {
      "mesh": 2,
      "name": "Object_5"
    },
    {
      "mesh": 3,
      "name": "Object_6"
    },
    {
      "mesh": 4,
      "name": "Object_7"
    },
    {
      "mesh": 5,
      "name": "Object_8"
    }
  ],
  "samplers": [
    {
      "magFilter": 9729,
      "minFilter": 9987,
      "wrapS": 10497,
      "wrapT": 10497
    }
  ],
  "scene": 0,
  "scenes": [
    {
      "name": "Sketchfab_Scene",
      "nodes": [
        0
      ]
    }
  ],
  "textures": [
    {
      "sampler": 0,
      "source": 0
    },
    {
      "sampler": 0,
      "source": 1
    },
    {
      "sampler": 0,
      "source": 2
    },
    {
      "sampler": 0,
      "source": 3
    }
  ]
}
